<?xml version="1.0" standalone="no"?>
<!DOCTYPE svg PUBLIC "-//W3C//DTD SVG 20010904//EN"
 "http://www.w3.org/TR/2001/REC-SVG-20010904/DTD/svg10.dtd">
<svg version="1.0" xmlns="http://www.w3.org/2000/svg"
 width="225.000000pt" height="225.000000pt" viewBox="0 0 225.000000 225.000000"
 preserveAspectRatio="xMidYMid meet">

<g transform="translate(0.000000,225.000000) scale(0.100000,-0.100000)"
fill="#000000" stroke="none">
<path d="M975 2239 c-153 -19 -327 -84 -464 -173 -86 -55 -225 -186 -292 -276
-158 -210 -240 -510 -210 -779 28 -260 126 -472 303 -657 106 -110 189 -172
313 -234 318 -157 682 -157 1000 0 55 27 129 72 165 99 90 67 221 206 276 292
217 335 241 756 64 1114 -62 124 -124 207 -234 313 -247 237 -574 344 -921
301z m247 -475 c111 -37 179 -140 186 -280 l5 -84 -27 0 c-26 0 -26 1 -26 78
0 96 -20 143 -84 199 -97 86 -217 81 -312 -11 -62 -61 -74 -96 -74 -218 l0
-88 60 0 60 0 0 75 c0 91 18 138 59 159 38 20 90 20 119 0 38 -27 52 -67 52
-153 l0 -80 83 -3 82 -3 3 -32 c3 -30 1 -33 -22 -33 -14 0 -26 4 -26 10 0 5
-37 10 -82 12 l-83 3 -5 112 c-3 62 -9 116 -15 122 -23 22 -61 22 -88 1 -26
-21 -27 -24 -27 -131 l0 -109 -111 0 -111 0 4 129 c3 119 6 133 34 187 31 62
99 123 158 142 48 15 137 14 188 -4z m-284 -515 c32 -16 59 -42 94 -90 49 -67
52 -69 94 -69 43 0 45 2 94 69 74 102 149 134 211 90 39 -27 37 -39 -8 -39
-81 -1 -156 -54 -244 -172 l-57 -78 -26 44 c-67 114 -186 206 -268 206 -45 0
-47 7 -10 37 34 28 64 29 120 2z m-29 -84 c40 -20 131 -103 131 -120 0 -2 -23
13 -52 35 -65 49 -156 75 -229 67 l-52 -6 29 30 c27 29 33 30 78 24 27 -3 70
-17 95 -30z m604 8 l26 -28 -72 0 c-85 0 -147 -21 -214 -72 l-46 -35 22 30
c77 108 227 164 284 105z m-578 -85 c28 -15 59 -34 70 -43 l20 -17 -20 8 c-11
3 -38 14 -60 22 -54 21 -196 21 -255 -1 -24 -9 -46 -14 -48 -12 -7 7 32 57 52
66 12 5 59 7 106 6 68 -3 95 -9 135 -29z m617 23 c13 -5 34 -23 47 -41 l24
-33 -24 7 c-102 32 -162 40 -231 28 -38 -7 -83 -19 -100 -28 -16 -8 -32 -13
-35 -11 -6 7 80 57 125 73 43 15 160 18 194 5z m-1010 -211 c40 -50 1 -120
-67 -120 l-35 0 0 76 0 77 42 -6 c27 -4 49 -14 60 -27z m118 -25 c33 -98 33
-95 12 -95 -11 0 -22 7 -26 15 -3 8 -14 15 -25 15 -10 0 -21 -7 -25 -15 -3 -8
-14 -15 -25 -15 -19 0 -19 2 6 76 21 64 28 75 46 72 14 -2 25 -17 37 -53z
m118 49 c27 -8 40 -49 23 -76 -8 -13 -8 -24 -1 -38 14 -26 13 -30 -10 -30 -11
0 -26 12 -34 28 l-15 27 -1 -27 c0 -21 -5 -28 -20 -28 -18 0 -20 7 -20 75 l0
75 28 0 c15 0 37 -3 50 -6z m84 -46 c2 -41 7 -54 21 -56 14 -3 17 5 17 52 0
49 2 56 20 56 18 0 20 -7 20 -57 0 -65 -18 -93 -61 -93 -39 0 -59 33 -59 97 0
46 3 53 19 53 17 0 20 -8 23 -52z m133 42 c9 -15 -5 -58 -22 -65 -22 -8 -28 1
-14 19 9 11 9 15 0 18 -17 6 -4 38 15 38 8 0 17 -4 21 -10z m55 -45 c0 -52 1
-55 25 -55 18 0 25 -5 25 -20 0 -17 -7 -20 -45 -20 l-45 0 0 75 c0 68 2 75 20
75 18 0 20 -7 20 -55z m230 35 c0 -15 -7 -20 -24 -20 -14 0 -28 -4 -31 -10 -4
-6 7 -10 25 -10 25 0 31 -4 28 -17 -2 -10 -13 -19 -25 -21 -14 -2 -23 -12 -25
-25 -2 -14 -10 -22 -23 -22 -17 0 -20 8 -23 59 -4 80 -1 86 53 86 38 0 45 -3
45 -20z m49 -26 c1 -53 6 -64 27 -64 9 0 14 11 14 35 0 21 5 35 13 36 10 0 10
2 0 6 -20 7 -15 33 6 33 15 0 18 -9 20 -59 1 -43 -3 -63 -14 -75 -24 -24 -71
-20 -89 6 -19 27 -21 88 -3 88 9 0 8 3 -2 9 -15 10 -7 31 13 31 8 0 13 -16 15
-46z m153 14 l27 -33 1 33 c0 25 4 32 20 32 18 0 20 -7 20 -75 0 -67 -2 -75
-19 -75 -11 0 -28 15 -40 33 l-21 32 0 -32 c0 -26 -4 -33 -20 -33 -18 0 -20 7
-20 75 0 86 10 94 52 43z m120 -20 c2 -41 7 -54 21 -56 14 -3 17 5 17 52 0 49
2 56 20 56 18 0 20 -7 20 -57 0 -65 -18 -93 -61 -93 -39 0 -59 33 -59 97 0 46
3 53 19 53 17 0 20 -8 23 -52z m150 20 l27 -33 1 33 c0 26 4 33 18 30 25 -5
26 -141 0 -146 -10 -2 -23 9 -35 28 l-18 31 -5 -28 c-3 -16 -13 -29 -23 -31
-15 -3 -17 6 -17 72 0 87 10 95 52 44z m-582 -54 c0 -9 -12 -14 -35 -14 -32 0
-46 15 -30 32 10 10 65 -5 65 -18z m-635 -104 c-3 -5 -1 -10 4 -10 6 0 11 -4
11 -9 0 -5 -8 -8 -17 -7 -12 0 -19 -7 -21 -21 -2 -16 2 -23 14 -23 13 0 14 3
4 15 -10 12 -10 15 4 15 9 0 16 -8 16 -19 0 -25 -15 -35 -37 -23 -11 7 -23 6
-34 -1 -28 -17 -49 -1 -49 38 0 33 2 35 33 34 23 -1 26 -3 10 -6 -27 -5 -31
-22 -5 -24 16 -1 16 -2 0 -6 -24 -6 -23 -23 2 -23 13 0 20 7 20 19 0 11 7 26
15 34 8 8 11 17 8 21 -4 3 1 6 11 6 9 0 14 -4 11 -10z m44 -52 c-1 -39 -2 -41
-8 -13 -4 17 -5 36 -3 43 8 23 12 12 11 -30z m74 35 c-18 -3 -23 -11 -23 -33
0 -16 -4 -32 -10 -35 -6 -4 -10 8 -10 29 0 19 -6 37 -12 39 -7 3 7 5 32 5 25
0 35 -3 23 -5z m54 -9 c5 -15 7 -15 15 0 16 28 28 17 28 -26 l0 -42 -22 24
c-20 21 -23 22 -26 7 -6 -31 -22 -18 -22 18 0 36 16 47 27 19z m103 -6 l9 -23
7 23 c3 12 10 22 15 22 12 0 11 -5 -7 -48 l-16 -37 -14 30 c-14 32 -18 55 -9
55 3 0 10 -10 15 -22z m88 15 c-10 -2 -18 -9 -18 -14 0 -5 8 -10 18 -10 16 -1
16 -2 0 -6 -22 -5 -24 -23 -3 -23 8 0 15 -4 15 -10 0 -5 -11 -10 -25 -10 -22
0 -25 4 -25 40 0 37 2 40 28 39 16 -1 20 -3 10 -6z m100 -5 c16 -16 15 -33 -4
-52 -28 -28 -44 -20 -44 24 0 32 4 40 18 40 10 0 23 -5 30 -12z m68 -26 c13
-32 13 -33 -7 -27 -11 4 -26 1 -34 -5 -18 -15 -19 -4 -4 39 14 38 26 36 45 -7z
m30 27 c4 -8 9 -7 15 2 15 25 18 3 4 -36 -11 -34 -14 -37 -20 -20 -4 11 -11
30 -16 43 -9 23 4 32 17 11z m82 -14 c7 -14 12 -34 12 -43 0 -15 -2 -15 -10
-2 -8 12 -13 13 -30 2 -23 -14 -24 -8 -9 37 13 38 22 39 37 6z m56 4 l14 -21
5 23 c2 13 5 4 5 -21 l2 -45 -20 25 c-16 20 -20 22 -20 8 0 -10 -4 -18 -10
-18 -5 0 -10 16 -10 35 0 40 12 45 34 14z m53 -41 c-2 -13 -4 -3 -4 22 0 25 2
35 4 23 2 -13 2 -33 0 -45z m63 52 c0 -5 -7 -7 -15 -4 -8 4 -15 2 -15 -4 0 -5
7 -12 15 -16 18 -7 20 -30 3 -44 -9 -7 -17 -6 -26 4 -11 12 -9 14 10 14 l23 0
-24 19 c-13 10 -21 23 -17 30 9 13 46 15 46 1z m36 -5 c6 -14 8 -13 19 2 18
25 27 12 23 -33 -3 -33 -5 -36 -13 -19 -13 27 -35 30 -35 4 0 -11 -4 -17 -10
-14 -13 8 -13 75 0 75 6 0 13 -7 16 -15z m108 -17 c14 -34 10 -61 -5 -37 -7
11 -12 12 -29 1 -23 -14 -24 -8 -9 37 14 40 25 39 43 -1z m66 17 c0 -8 5 -15
10 -15 6 0 10 7 10 15 0 8 5 15 11 15 6 0 8 -7 5 -16 -3 -9 -9 -27 -12 -40 -8
-33 -18 -30 -32 9 -15 41 -15 47 -2 47 6 0 10 -7 10 -15z m90 -11 c6 -14 10
-33 10 -42 0 -15 -2 -15 -10 -2 -8 12 -13 13 -30 2 -23 -14 -24 -8 -9 37 13
38 26 40 39 5z m40 14 c0 -9 3 -9 12 0 17 17 33 15 19 -2 -9 -11 -9 -20 -2
-35 17 -30 13 -36 -9 -16 -19 17 -20 17 -20 1 0 -9 -4 -14 -10 -11 -5 3 -10
22 -10 41 0 19 5 34 10 34 6 0 10 -5 10 -12z m88 5 c-22 -5 -23 -20 -3 -25 11
-2 8 -9 -10 -27 l-25 -23 0 41 c0 38 2 41 28 40 16 -1 20 -3 10 -6z m42 -27
c0 -19 -4 -38 -10 -41 -6 -4 -10 10 -10 34 0 23 5 41 10 41 6 0 10 -15 10 -34z
m-1150 -17 c0 -17 -4 -28 -10 -24 -5 3 -10 17 -10 31 0 13 5 24 10 24 6 0 10
-14 10 -31z"/>
<path d="M480 855 c0 -24 5 -35 14 -35 20 0 30 38 16 55 -20 24 -30 17 -30
-20z"/>
<path d="M615 850 c-3 -5 -1 -10 4 -10 6 0 11 5 11 10 0 6 -2 10 -4 10 -3 0
-8 -4 -11 -10z"/>
<path d="M740 875 c0 -8 7 -15 15 -15 8 0 15 7 15 15 0 8 -7 15 -15 15 -8 0
-15 -7 -15 -15z"/>
<path d="M960 695 c0 -17 5 -25 13 -22 6 2 12 12 12 22 0 10 -6 20 -12 23 -8
2 -13 -6 -13 -23z"/>
</g>
</svg>
