<?xml version="1.0" standalone="no"?>
<!DOCTYPE svg PUBLIC "-//W3C//DTD SVG 20010904//EN"
 "http://www.w3.org/TR/2001/REC-SVG-20010904/DTD/svg10.dtd">
<svg version="1.0" xmlns="http://www.w3.org/2000/svg"
 width="225.000000pt" height="225.000000pt" viewBox="0 0 225.000000 225.000000"
 preserveAspectRatio="xMidYMid meet">

<g transform="translate(0.000000,225.000000) scale(0.100000,-0.100000)"
fill="#000000" stroke="none">
<path d="M1552 2203 c37 -2 100 -2 140 0 40 1 10 3 -67 3 -77 0 -110 -1 -73
-3z"/>
<path d="M430 2123 l-55 -58 58 55 c31 30 57 56 57 57 0 8 -10 -1 -60 -54z"/>
<path d="M437 2039 l-84 -92 32 -81 c18 -45 41 -117 50 -161 18 -86 24 -264
11 -332 l-8 -43 120 0 119 0 7 42 c10 59 40 123 89 188 23 30 41 59 39 63 -1
5 2 6 8 2 5 -3 25 5 44 20 51 39 148 74 223 81 126 11 266 -40 352 -130 19
-19 39 -32 44 -29 6 4 7 1 3 -6 -5 -7 -1 -20 7 -29 22 -26 54 -93 62 -132 14
-75 5 -70 128 -70 l112 0 -3 114 c-6 174 22 292 104 438 l32 56 -98 96 -97 96
-605 0 -606 0 -85 -91z"/>
<path d="M1918 2037 c45 -46 79 -87 75 -92 -4 -4 -2 -5 6 0 9 5 -9 30 -70 91
-46 46 -86 84 -89 84 -2 0 33 -37 78 -83z"/>
<path d="M309 1993 l-34 -38 38 34 c20 19 37 36 37 38 0 8 -8 0 -41 -34z"/>
<path d="M286 1937 c3 -10 9 -15 12 -12 3 3 0 11 -7 18 -10 9 -11 8 -5 -6z"/>
<path d="M372 1680 c0 -14 2 -19 5 -12 2 6 2 18 0 25 -3 6 -5 1 -5 -13z"/>
<path d="M382 1600 c0 -19 2 -27 5 -17 2 9 2 25 0 35 -3 9 -5 1 -5 -18z"/>
<path d="M1852 1565 c0 -16 2 -22 5 -12 2 9 2 23 0 30 -3 6 -5 -1 -5 -18z"/>
<path d="M910 1573 c-8 -2 -23 -15 -34 -29 -18 -25 -18 -27 7 -77 34 -71 42
-107 22 -107 -8 0 -15 -4 -15 -9 0 -5 8 -8 18 -7 10 0 16 -6 16 -16 -1 -10 7
-20 17 -23 17 -6 24 -27 20 -61 -1 -11 83 -34 125 -34 15 0 24 -6 24 -15 0
-12 -7 -14 -27 -9 -16 4 -32 11 -37 15 -6 5 -43 9 -83 9 -40 0 -73 4 -73 9 0
5 -6 9 -12 8 -7 0 -24 1 -38 2 -21 1 -22 3 -10 12 12 9 11 10 -8 6 -12 -3 -20
-2 -17 3 3 4 -2 13 -10 20 -13 11 -14 8 -9 -21 16 -84 87 -202 117 -193 23 7
59 -5 51 -18 -4 -6 -10 -6 -17 1 -6 6 -18 11 -27 11 -13 0 -13 -1 0 -10 8 -5
11 -10 5 -10 -5 -1 0 -5 13 -11 13 -5 21 -13 18 -18 -4 -5 4 -7 16 -3 20 5 21
3 10 -11 -12 -14 -9 -17 26 -27 22 -6 42 -15 44 -21 6 -17 122 -23 190 -9 63
12 135 44 174 77 36 30 102 136 118 190 7 21 5 21 -26 12 -41 -11 -48 -11 -25
2 23 14 21 49 -8 142 -14 43 -25 86 -25 96 0 10 -9 26 -20 36 -28 25 -95 11
-95 -20 0 -11 -6 -26 -12 -33 -7 -7 -13 -25 -13 -39 0 -19 4 -24 16 -19 13 5
15 2 10 -16 -3 -13 -6 -30 -6 -38 0 -8 -7 -24 -15 -34 -11 -15 -17 -16 -28 -7
-11 9 -17 8 -27 -4 -19 -23 -4 -64 27 -71 l26 -7 -24 -13 c-13 -7 -33 -13 -44
-13 l-20 0 20 9 c17 7 15 9 -12 9 -22 1 -33 -4 -33 -13 0 -8 -16 -20 -35 -26
-19 -6 -33 -15 -30 -20 3 -5 1 -11 -4 -14 -5 -3 -11 0 -14 8 -3 8 1 17 10 20
11 4 13 14 9 32 -6 22 -4 25 13 19 20 -6 20 -5 5 32 -9 21 -23 61 -31 88 -21
72 -87 205 -116 238 -24 25 -49 31 -87 20z m37 -255 c-3 -7 -5 -2 -5 12 0 14
2 19 5 13 2 -7 2 -19 0 -25z m476 -125 c-7 -2 -21 -2 -30 0 -10 3 -4 5 12 5
17 0 24 -2 18 -5z m-503 -103 c0 -5 -4 -10 -10 -10 -5 0 -10 5 -10 10 0 6 5
10 10 10 6 0 10 -4 10 -10z m214 -35 c3 -8 1 -15 -4 -15 -6 0 -10 7 -10 15 0
8 2 15 4 15 2 0 6 -7 10 -15z m66 -25 c0 -5 -4 -10 -10 -10 -5 0 -10 5 -10 10
0 6 5 10 10 10 6 0 10 -4 10 -10z m-76 -35 c-6 -24 -4 -25 20 -19 14 3 26 2
26 -3 0 -14 -22 -33 -39 -33 -14 0 -14 2 -1 11 11 8 4 9 -28 5 -26 -4 -41 -3
-38 3 4 5 0 12 -6 14 -7 3 -1 6 14 6 16 1 33 9 40 21 17 27 20 25 12 -5z m91
-13 c-3 -3 -11 0 -18 7 -9 10 -8 11 6 5 10 -3 15 -9 12 -12z"/>
<path d="M382 1425 c0 -16 2 -22 5 -12 2 9 2 23 0 30 -3 6 -5 -1 -5 -18z"/>
<path d="M1852 1360 c0 -14 2 -19 5 -12 2 6 2 18 0 25 -3 6 -5 1 -5 -13z"/>
<path d="M372 1340 c0 -14 2 -19 5 -12 2 6 2 18 0 25 -3 6 -5 1 -5 -13z"/>
<path d="M844 1345 c-41 -17 -49 -40 -21 -60 27 -19 33 -19 41 1 4 12 1 14
-14 9 -11 -4 -20 -2 -20 4 0 12 25 37 42 44 7 2 11 7 8 10 -3 3 -19 -1 -36 -8z"/>
<path d="M1862 1290 c0 -14 2 -19 5 -12 2 6 2 18 0 25 -3 6 -5 1 -5 -13z"/>
<path d="M361 1284 c0 -11 3 -14 6 -6 3 7 2 16 -1 19 -3 4 -6 -2 -5 -13z"/>
<path d="M1871 1244 c0 -11 3 -14 6 -6 3 7 2 16 -1 19 -3 4 -6 -2 -5 -13z"/>
<path d="M198 1243 c6 -2 18 -2 25 0 6 3 1 5 -13 5 -14 0 -19 -2 -12 -5z"/>
<path d="M2061 1247 c2 -1 15 -11 29 -22 l25 -20 -19 23 c-11 12 -24 22 -29
22 -6 0 -8 -1 -6 -3z"/>
<path d="M124 1208 l-19 -23 23 19 c12 11 22 21 22 23 0 8 -8 2 -26 -19z"/>
<path d="M310 1195 c13 -14 26 -25 28 -25 3 0 -5 11 -18 25 -13 14 -26 25 -28
25 -3 0 5 -11 18 -25z"/>
<path d="M2121 1164 c0 -11 3 -14 6 -6 3 7 2 16 -1 19 -3 4 -6 -2 -5 -13z"/>
<path d="M1890 1160 c0 -5 5 -10 11 -10 5 0 7 5 4 10 -3 6 -8 10 -11 10 -2 0
-4 -4 -4 -10z"/>
<path d="M76 1115 c-9 -26 -7 -32 5 -12 6 10 9 21 6 23 -2 3 -7 -2 -11 -11z"/>
<path d="M165 1100 c3 -5 8 -10 11 -10 2 0 4 5 4 10 0 6 -5 10 -11 10 -5 0 -7
-4 -4 -10z"/>
<path d="M90 1018 c-35 -86 -33 -110 8 -116 28 -4 123 125 101 139 -8 5 -19 9
-26 9 -6 0 -20 11 -31 25 l-20 25 -32 -82z"/>
<path d="M2177 1015 c20 -41 39 -73 41 -71 4 5 -66 146 -73 146 -3 0 12 -34
32 -75z"/>
<path d="M56 1065 c-9 -26 -7 -32 5 -12 6 10 9 21 6 23 -2 3 -7 -2 -11 -11z"/>
<path d="M30 896 c0 -2 8 -10 18 -17 15 -13 16 -12 3 4 -13 16 -21 21 -21 13z"/>
<path d="M2179 873 c-13 -16 -12 -17 4 -4 9 7 17 15 17 17 0 8 -8 3 -21 -13z"/>
<path d="M2138 853 c7 -3 16 -2 19 1 4 3 -2 6 -13 5 -11 0 -14 -3 -6 -6z"/>
<path d="M2121 804 c0 -11 3 -14 6 -6 3 7 2 16 -1 19 -3 4 -6 -2 -5 -13z"/>
<path d="M91 794 c0 -11 3 -14 6 -6 3 7 2 16 -1 19 -3 4 -6 -2 -5 -13z"/>
<path d="M2111 754 c0 -11 3 -14 6 -6 3 7 2 16 -1 19 -3 4 -6 -2 -5 -13z"/>
<path d="M302 708 c-5 -7 -17 -28 -26 -46 -18 -34 -9 -62 18 -62 20 0 39 18
31 29 -5 9 -10 9 -21 0 -19 -16 -19 3 1 42 16 29 40 32 28 4 -3 -8 0 -15 6
-15 21 0 25 32 6 46 -23 17 -30 17 -43 2z"/>
<path d="M352 641 c-27 -48 -27 -57 -1 -71 26 -14 46 1 66 48 11 26 11 37 2
48 -20 24 -45 15 -67 -25z m32 -33 c-14 -26 -19 -29 -22 -15 -4 20 29 78 35
60 2 -6 -4 -27 -13 -45z"/>
<path d="M425 606 c-27 -45 -31 -66 -15 -66 6 0 10 4 10 8 0 5 7 17 15 28 14
18 14 17 5 -10 -15 -42 3 -56 30 -25 19 22 20 22 11 2 -6 -12 -11 -26 -11 -32
0 -23 16 -8 42 38 22 40 25 51 14 60 -11 9 -20 4 -41 -21 -28 -32 -28 -33 -22
-6 4 14 9 33 13 41 3 8 -2 17 -10 20 -11 4 -23 -7 -41 -37z"/>
<path d="M1786 634 c-8 -22 -8 -24 8 -24 8 0 17 -9 21 -19 7 -22 33 -46 41
-38 7 7 -45 97 -56 97 -4 0 -11 -7 -14 -16z"/>
<path d="M1674 587 c-3 -8 0 -26 6 -41 5 -15 10 -32 10 -37 0 -17 -21 2 -30
27 -10 26 -30 30 -60 14 -19 -10 -18 -13 11 -60 27 -44 33 -49 50 -39 11 6 22
16 25 24 3 8 13 11 21 8 13 -5 15 -2 11 15 -6 23 15 32 27 12 4 -6 11 -8 16
-4 10 6 -57 94 -73 94 -5 0 -11 -6 -14 -13z m41 -37 c3 -5 1 -10 -4 -10 -6 0
-11 5 -11 10 0 6 2 10 4 10 3 0 8 -4 11 -10z m-80 -19 c3 -5 1 -12 -4 -15 -5
-3 -11 1 -15 9 -6 16 9 21 19 6z m25 -47 c0 -8 -4 -12 -10 -9 -5 3 -10 10 -10
16 0 5 5 9 10 9 6 0 10 -7 10 -16z"/>
<path d="M526 544 c-29 -52 -24 -82 6 -37 l19 28 -7 -27 c-10 -42 4 -51 32
-20 l25 27 -15 -32 c-10 -19 -12 -34 -6 -38 5 -3 21 17 35 46 20 39 24 54 15
63 -9 8 -19 2 -42 -24 -27 -31 -29 -32 -22 -10 23 74 -3 90 -40 24z"/>
<path d="M2009 553 l-24 -28 28 24 c25 23 32 31 24 31 -2 0 -14 -12 -28 -27z"/>
<path d="M210 536 c0 -2 8 -10 18 -17 15 -13 16 -12 3 4 -13 16 -21 21 -21 13z"/>
<path d="M636 497 c-31 -52 -32 -63 -7 -77 33 -17 47 -5 89 83 2 4 -3 7 -11 7
-8 0 -20 -13 -27 -30 -7 -16 -18 -35 -26 -41 -22 -18 -18 13 6 55 13 20 17 37
11 40 -5 4 -21 -13 -35 -37z"/>
<path d="M1543 523 c-10 -3 -9 -12 2 -39 17 -40 9 -44 -20 -8 -14 17 -26 23
-38 18 -16 -6 -16 -10 8 -49 36 -62 31 -67 -15 -15 -29 33 -42 42 -50 34 -14
-14 10 -106 30 -112 9 -3 11 2 7 17 -5 21 16 31 27 12 4 -5 16 -4 30 2 23 11
24 13 9 42 l-16 30 25 -22 c34 -32 50 -30 38 3 -14 37 -12 39 9 13 31 -39 35
-14 6 35 -27 46 -30 48 -52 39z"/>
<path d="M707 450 c-30 -53 -32 -60 -17 -60 5 0 16 12 25 28 l15 27 -2 -39
c-4 -56 13 -54 44 6 30 56 28 77 -3 38 l-20 -25 4 32 c6 50 -16 46 -46 -7z"/>
<path d="M1934 478 l-19 -23 23 19 c21 18 27 26 19 26 -2 0 -12 -10 -23 -22z"/>
<path d="M270 486 c0 -2 8 -10 18 -17 15 -13 16 -12 3 4 -13 16 -21 21 -21 13z"/>
<path d="M785 400 l-25 -49 21 -11 c23 -13 41 -4 20 9 -17 11 -4 34 15 27 16
-6 29 10 14 19 -18 11 -11 27 10 20 26 -8 26 11 1 25 -28 15 -28 15 -56 -40z"/>
<path d="M1377 433 c-4 -3 -2 -14 3 -24 15 -26 -6 -34 -23 -8 -9 12 -17 16
-21 10 -8 -12 41 -101 55 -101 12 0 11 7 -2 32 -16 30 0 36 21 8 30 -39 37
-14 10 36 -27 49 -34 57 -43 47z"/>
<path d="M1818 404 c-38 -20 -36 -28 2 -9 17 9 30 18 30 20 0 7 -1 6 -32 -11z"/>
<path d="M410 395 c0 -7 81 -47 86 -43 2 3 -17 14 -41 26 -25 12 -45 20 -45
17z"/>
<path d="M880 349 c-20 -43 -22 -52 -10 -60 30 -18 50 -9 70 32 20 39 20 42 4
60 -26 29 -39 23 -64 -32z m34 -27 c-11 -16 -19 -22 -22 -14 -2 7 4 25 14 40
11 16 19 22 22 14 2 -7 -4 -25 -14 -40z"/>
<path d="M1271 376 c-10 -12 -8 -23 9 -55 20 -41 40 -50 68 -32 16 9 13 44 -3
39 -5 -1 -9 -8 -7 -15 5 -22 -15 -14 -32 12 -22 34 -20 48 5 40 15 -5 20 -3
17 6 -6 20 -42 23 -57 5z"/>
<path d="M972 348 c-5 -7 -17 -28 -27 -47 -17 -33 -17 -35 1 -48 21 -16 34
-17 34 -3 0 6 -4 10 -10 10 -5 0 -10 7 -10 16 0 11 6 15 20 11 21 -5 28 7 10
18 -15 9 -1 27 16 21 22 -8 26 12 5 23 -25 14 -26 14 -39 -1z"/>
<path d="M1207 349 c-9 -6 -15 -15 -12 -20 4 -5 10 -7 15 -4 5 3 19 -13 31
-35 22 -39 39 -52 39 -29 0 7 -9 27 -21 45 -11 19 -18 38 -14 44 8 13 -15 12
-38 -1z"/>
<path d="M1620 310 c-8 -5 -10 -10 -5 -10 6 0 17 5 25 10 8 5 11 10 5 10 -5 0
-17 -5 -25 -10z"/>
<path d="M1570 290 c-8 -5 -10 -10 -5 -10 6 0 17 5 25 10 8 5 11 10 5 10 -5 0
-17 -5 -25 -10z"/>
<path d="M660 280 c8 -5 20 -10 25 -10 6 0 3 5 -5 10 -8 5 -19 10 -25 10 -5 0
-3 -5 5 -10z"/>
<path d="M710 260 c8 -5 20 -10 25 -10 6 0 3 5 -5 10 -8 5 -19 10 -25 10 -5 0
-3 -5 5 -10z"/>
<path d="M760 240 c8 -5 20 -10 25 -10 6 0 3 5 -5 10 -8 5 -19 10 -25 10 -5 0
-3 -5 5 -10z"/>
<path d="M1400 220 c-8 -5 -10 -10 -5 -10 6 0 17 5 25 10 8 5 11 10 5 10 -5 0
-17 -5 -25 -10z"/>
<path d="M930 166 c0 -3 9 -10 20 -16 11 -6 20 -8 20 -6 0 3 -9 10 -20 16 -11
6 -20 8 -20 6z"/>
<path d="M1010 116 c0 -2 8 -10 18 -17 15 -13 16 -12 3 4 -13 16 -21 21 -21
13z"/>
<path d="M1119 83 c-13 -16 -12 -17 4 -4 9 7 17 15 17 17 0 8 -8 3 -21 -13z"/>
<path d="M1150 65 l-34 -35 -35 32 -36 33 35 -38 34 -37 38 37 c21 20 38 38
38 40 0 7 -8 1 -40 -32z"/>
</g>
</svg>
