<?xml version="1.0" standalone="no"?>
<!DOCTYPE svg PUBLIC "-//W3C//DTD SVG 20010904//EN"
 "http://www.w3.org/TR/2001/REC-SVG-20010904/DTD/svg10.dtd">
<svg version="1.0" xmlns="http://www.w3.org/2000/svg"
 width="802.000000pt" height="285.000000pt" viewBox="0 0 802.000000 285.000000"
 preserveAspectRatio="xMidYMid meet">

<g transform="translate(0.000000,285.000000) scale(0.100000,-0.100000)"
fill="#000000" stroke="none">
<path d="M253 2668 c-85 -84 -163 -169 -173 -189 -27 -52 -38 -128 -55 -376
-14 -215 -14 -224 5 -285 20 -65 28 -75 510 -696 l95 -122 251 0 252 0 25 29
c19 23 25 45 30 103 4 40 3 87 -1 105 -5 24 -71 93 -287 301 -155 148 -295
277 -312 286 -42 21 -61 20 -101 -4 -36 -22 -56 -62 -46 -94 3 -11 101 -114
217 -228 185 -180 211 -209 201 -225 -6 -10 -18 -19 -26 -21 -18 -3 -422 378
-443 418 -22 42 -19 128 5 168 23 37 71 69 118 78 31 6 32 7 25 43 -5 20 -8
88 -8 151 0 164 8 179 194 360 82 80 154 155 160 168 10 19 8 26 -14 47 -21
22 -28 24 -47 14 -38 -21 -310 -293 -323 -324 -7 -16 -21 -104 -30 -195 -9
-91 -20 -175 -25 -187 -12 -28 -45 -30 -59 -5 -11 21 21 353 40 409 7 22 61
81 159 175 91 86 153 154 160 172 10 28 8 33 -15 54 -14 12 -30 22 -36 22 -5
0 -90 -77 -189 -171 -138 -132 -183 -181 -194 -213 -9 -24 -24 -145 -36 -295
-11 -139 -23 -258 -26 -262 -10 -16 -43 -9 -54 11 -11 21 23 500 41 571 7 28
33 59 115 134 96 90 134 136 134 165 0 17 -47 60 -65 60 -9 0 -86 -69 -172
-152z"/>
<path d="M1743 2808 c-30 -15 -37 -41 -19 -76 8 -16 78 -89 155 -161 107 -101
144 -143 155 -174 17 -48 49 -323 44 -383 -2 -31 -7 -40 -24 -42 -11 -2 -26 3
-31 10 -6 7 -19 90 -28 183 -10 94 -24 185 -31 204 -14 34 -283 303 -328 328
-18 10 -25 8 -43 -9 -13 -12 -23 -28 -23 -36 0 -8 74 -90 164 -181 192 -196
201 -211 201 -361 0 -52 -4 -116 -8 -141 l-8 -46 43 -11 c46 -12 104 -61 119
-100 13 -34 11 -98 -4 -135 -16 -37 -420 -422 -444 -422 -9 0 -21 8 -27 18 -9
15 18 46 202 229 185 185 212 215 212 242 0 44 -24 73 -70 87 -33 10 -43 9
-74 -7 -45 -24 -585 -542 -597 -572 -14 -36 -11 -159 5 -197 8 -18 23 -38 34
-44 13 -7 109 -11 269 -10 l248 0 275 355 c151 195 288 377 304 405 37 65 42
128 27 356 -14 223 -27 306 -57 364 -15 31 -72 94 -169 185 -80 77 -155 143
-166 148 -15 7 -25 4 -44 -14 -49 -46 -31 -80 107 -205 55 -49 104 -98 109
-107 12 -21 51 -490 47 -560 -2 -42 -7 -54 -22 -56 -10 -2 -23 1 -29 7 -5 5
-20 129 -32 275 -20 239 -24 268 -46 305 -22 36 -355 362 -368 360 -3 0 -16
-5 -28 -11z"/>
<path d="M913 2519 c-26 -23 -52 -45 -56 -49 -11 -10 114 -7 131 3 17 11 15
52 -4 71 -8 9 -17 16 -19 16 -2 0 -25 -18 -52 -41z"/>
<path d="M1480 2540 c-24 -24 -25 -29 -4 -58 14 -20 22 -22 53 -17 20 3 50 1
66 -5 28 -11 28 -9 -15 35 -62 64 -75 70 -100 45z"/>
<path d="M841 2384 c-184 -65 -268 -239 -200 -419 24 -66 7 -47 372 -398 l216
-209 27 21 c15 12 142 133 282 269 298 289 307 301 307 442 0 75 -3 91 -29
138 -36 65 -82 107 -156 141 -45 21 -70 26 -135 26 -96 0 -148 -22 -229 -96
-30 -27 -57 -49 -61 -49 -4 0 -30 21 -59 46 -74 67 -156 104 -231 104 -33 -1
-80 -8 -104 -16z"/>
<path d="M937 771 c-109 -36 -182 -100 -231 -201 -29 -60 -31 -73 -31 -170 0
-92 4 -112 27 -162 50 -107 132 -177 257 -217 81 -27 141 -26 227 0 92 28 143
58 197 119 68 76 91 143 92 265 0 90 -3 106 -29 163 -37 81 -122 161 -203 193
-82 31 -226 36 -306 10z m242 -157 c63 -32 96 -78 112 -157 31 -154 -52 -279
-195 -294 -132 -14 -225 67 -242 208 -23 198 152 329 325 243z"/>
<path d="M6545 776 c-122 -39 -215 -121 -257 -224 -18 -45 -22 -77 -23 -152 0
-86 3 -101 31 -160 55 -116 119 -172 247 -215 90 -30 150 -31 235 -6 186 57
293 195 293 382 0 180 -99 316 -270 369 -73 23 -194 26 -256 6z m249 -173 c55
-39 87 -99 93 -176 12 -148 -66 -252 -197 -265 -95 -9 -184 40 -221 123 -23
50 -25 177 -5 226 19 45 74 97 122 115 62 23 157 13 208 -23z"/>
<path d="M0 395 l0 -376 88 3 87 3 3 147 3 148 144 0 145 0 0 70 0 70 -145 0
-145 0 0 85 0 85 155 0 155 0 0 70 0 70 -245 0 -245 0 0 -375z"/>
<path d="M1692 493 l3 -278 27 -51 c47 -89 148 -151 264 -162 101 -9 235 55
290 138 45 68 54 132 54 393 l0 237 -90 0 -89 0 -3 -270 -3 -270 -32 -32 c-28
-28 -40 -32 -95 -36 -51 -2 -70 1 -96 18 -57 36 -62 61 -62 340 l0 250 -86 0
-85 0 3 -277z"/>
<path d="M2562 398 l3 -373 83 -3 82 -3 0 245 c0 207 2 245 14 240 8 -3 80
-113 161 -245 l147 -239 94 0 94 0 0 375 0 375 -80 0 -80 0 0 -240 c0 -186 -3
-240 -12 -240 -7 1 -78 108 -158 240 l-145 240 -103 0 -102 0 2 -372z"/>
<path d="M3492 398 l3 -373 165 1 c91 0 189 6 218 12 128 29 224 102 276 211
27 59 31 76 31 156 0 77 -4 98 -28 150 -49 105 -128 167 -254 200 -40 11 -110
15 -235 15 l-178 0 2 -372z m395 207 c79 -32 123 -105 123 -205 0 -100 -44
-173 -123 -205 -23 -9 -84 -19 -134 -22 l-93 -6 0 233 0 233 93 -6 c50 -3 111
-13 134 -22z"/>
<path d="M4587 738 c-8 -18 -78 -185 -155 -370 -78 -186 -142 -340 -142 -343
0 -3 40 -5 89 -5 l88 0 28 75 27 75 157 0 156 0 28 -75 28 -75 94 0 94 0 -45
108 c-25 59 -95 227 -156 375 l-111 267 -83 0 -84 0 -13 -32z m151 -296 c23
-64 42 -120 42 -124 0 -5 -45 -8 -100 -8 -55 0 -100 3 -100 8 0 4 19 60 42
124 29 79 48 118 58 118 10 0 29 -39 58 -118z"/>
<path d="M5100 700 l0 -70 105 0 105 0 2 -302 3 -303 85 0 85 0 3 303 2 302
105 0 105 0 0 70 0 70 -300 0 -300 0 0 -70z"/>
<path d="M5872 398 l3 -373 85 0 85 0 3 373 2 372 -90 0 -90 0 2 -372z"/>
<path d="M7290 395 l0 -375 80 0 80 0 0 245 c0 190 3 245 13 245 6 -1 79 -111
161 -246 l150 -245 95 3 96 3 3 373 2 372 -85 0 -85 0 0 -240 c0 -198 -2 -238
-14 -234 -7 3 -78 111 -157 240 l-144 234 -97 0 -98 0 0 -375z"/>
</g>
</svg>
