<?xml version="1.0" standalone="no"?>
<!DOCTYPE svg PUBLIC "-//W3C//DTD SVG 20010904//EN"
 "http://www.w3.org/TR/2001/REC-SVG-20010904/DTD/svg10.dtd">
<svg version="1.0" xmlns="http://www.w3.org/2000/svg"
 width="750.000000pt" height="523.000000pt" viewBox="0 0 750.000000 523.000000"
 preserveAspectRatio="xMidYMid meet">

<g transform="translate(0.000000,523.000000) scale(0.100000,-0.100000)"
fill="#000000" stroke="none">
<path d="M3873 4495 c-57 -35 -86 -84 -86 -149 0 -85 44 -145 126 -172 42 -14
56 -14 91 -4 88 26 136 89 136 178 0 133 -151 216 -267 147z"/>
<path d="M4287 4385 c-76 -27 -117 -87 -117 -170 0 -53 16 -88 57 -127 130
-123 339 8 287 181 -15 53 -52 93 -106 115 -45 19 -71 19 -121 1z"/>
<path d="M3670 4183 c-27 -10 -67 -38 -101 -72 -171 -171 -212 -519 -93 -789
59 -134 187 -279 323 -367 80 -51 151 -88 158 -81 3 2 -14 32 -37 67 -137 201
-214 485 -181 664 12 65 66 185 83 185 6 0 7 -8 3 -17 -26 -69 -37 -156 -32
-273 7 -212 72 -368 216 -522 84 -90 163 -149 269 -202 l73 -37 -39 58 c-144
212 -219 471 -192 663 22 159 108 264 218 264 56 0 142 -37 195 -84 20 -17 37
-27 37 -21 0 16 -74 161 -114 224 -116 181 -257 258 -397 216 -38 -12 -39 -11
-95 40 -31 29 -75 61 -97 73 -54 27 -140 32 -197 11z"/>
<path d="M1080 3610 l0 -50 50 0 50 0 0 -350 0 -350 55 0 55 0 0 350 0 350 50
0 50 0 0 50 0 50 -155 0 -155 0 0 -50z"/>
<path d="M1504 3641 c-17 -11 -36 -34 -43 -52 -7 -21 -11 -138 -11 -345 l0
-314 29 -32 c28 -32 33 -33 120 -38 111 -6 146 0 180 34 l26 26 3 313 c4 348
0 376 -51 407 -46 28 -208 29 -253 1z m184 -93 c17 -17 17 -569 0 -586 -7 -7
-33 -12 -59 -12 -79 0 -79 2 -79 302 0 142 4 268 10 282 9 23 15 26 63 26 29
0 58 -5 65 -12z"/>
<path d="M1907 3306 c1 -380 3 -391 53 -427 31 -23 189 -28 233 -8 60 27 62
39 65 432 l3 357 -55 0 -56 0 0 -339 c0 -380 2 -371 -70 -371 -70 0 -70 0 -70
377 l0 333 -52 0 -53 0 2 -354z"/>
<path d="M2412 3647 c-56 -31 -57 -37 -60 -367 -4 -329 0 -365 45 -399 22 -18
40 -21 117 -21 101 0 125 10 151 60 8 16 15 49 15 75 l0 45 -45 0 c-25 0 -48
0 -52 0 -5 1 -10 -16 -13 -37 -6 -45 -42 -64 -85 -45 l-25 12 0 283 c0 207 3
286 12 295 7 7 26 12 43 12 44 0 55 -16 55 -77 l0 -53 55 0 55 0 0 65 c0 81
-19 129 -59 149 -37 20 -175 21 -209 3z"/>
<path d="M2762 3259 l3 -401 53 -2 52 -1 0 183 0 182 65 0 65 0 0 -179 0 -179
48 -4 c26 -3 50 -3 55 -1 4 2 7 184 7 404 l0 399 -55 0 -55 0 0 -170 0 -170
-65 0 -65 0 0 170 0 170 -55 0 -55 0 2 -401z"/>
<path d="M1110 1995 l0 -545 73 0 72 0 -3 245 -3 244 98 3 98 3 0 65 0 65 -95
5 -95 5 -3 140 c-4 199 -13 185 113 185 l105 0 0 65 0 65 -180 0 -180 0 0
-545z"/>
<path d="M1650 2523 c-47 -24 -77 -73 -85 -136 -4 -29 -5 -225 -3 -437 3 -367
4 -387 24 -420 11 -19 36 -45 55 -58 32 -22 41 -23 176 -20 158 3 178 11 214
78 18 32 19 65 19 465 0 474 0 473 -63 519 -25 18 -45 21 -165 24 -116 2 -142
0 -172 -15z m236 -127 c18 -14 19 -31 22 -391 3 -446 8 -425 -91 -425 -40 0
-70 6 -85 16 l-22 15 0 384 0 384 22 15 c29 20 127 21 154 2z"/>
<path d="M2182 2058 c3 -448 4 -486 22 -521 35 -70 63 -82 211 -85 122 -3 132
-2 164 20 19 13 44 39 55 58 20 34 21 51 24 523 l3 487 -76 0 -75 0 0 -463 c0
-533 7 -497 -93 -497 -92 0 -87 -28 -87 502 l0 458 -76 0 -75 0 3 -482z"/>
<path d="M2800 1995 l0 -545 70 0 70 0 0 348 c0 203 4 341 9 332 5 -8 41 -117
80 -242 69 -221 71 -229 71 -332 l0 -106 75 0 75 0 0 545 -1 545 -74 0 -75 0
0 -252 c0 -140 -4 -246 -9 -238 -4 8 -27 80 -51 160 -23 80 -54 186 -69 235
l-28 90 -71 3 -72 3 0 -546z"/>
<path d="M3380 1995 l0 -545 175 0 c153 0 181 2 213 19 73 38 72 28 72 504 0
277 -4 436 -11 454 -14 38 -57 83 -96 99 -23 10 -79 14 -193 14 l-160 0 0
-545z m299 389 c20 -26 21 -38 21 -397 0 -434 7 -407 -102 -407 l-68 0 0 415
0 415 64 0 c58 0 67 -3 85 -26z"/>
<path d="M4060 2529 c-42 -17 -70 -51 -85 -103 -13 -42 -15 -130 -15 -513 l1
-463 74 0 75 0 2 198 3 197 80 0 80 0 3 -197 2 -198 76 0 75 0 -3 483 c-3 459
-4 484 -23 521 -36 71 -60 81 -198 83 -67 2 -133 -2 -147 -8z m200 -139 c19
-19 20 -33 20 -215 l0 -195 -85 0 -85 0 0 195 c0 182 1 196 20 215 14 14 33
20 65 20 32 0 51 -6 65 -20z"/>
<path d="M4500 2475 l0 -65 70 0 70 0 0 -480 0 -480 75 0 75 0 0 480 0 480 70
0 70 0 0 65 0 65 -215 0 -215 0 0 -65z"/>
<path d="M5010 1995 l0 -545 75 0 75 0 0 545 0 545 -75 0 -75 0 0 -545z"/>
<path d="M5370 2521 c-19 -10 -45 -36 -57 -57 -22 -39 -23 -42 -23 -469 0
-427 1 -430 23 -469 36 -64 71 -76 220 -76 136 0 163 7 203 52 42 46 44 74 44
493 0 419 -2 447 -44 494 -37 41 -76 51 -208 51 -101 0 -130 -3 -158 -19z
m242 -128 c17 -15 18 -41 18 -399 0 -442 6 -414 -94 -414 -109 0 -101 -31
-101 415 0 371 1 387 19 401 28 20 134 19 158 -3z"/>
<path d="M5910 1995 l0 -545 73 0 72 0 -2 335 c-2 184 1 336 5 339 4 2 40 -98
80 -223 71 -226 72 -229 72 -339 l0 -112 75 0 75 0 0 545 0 545 -75 0 -75 0
-1 -252 c0 -153 -4 -245 -9 -233 -5 11 -39 125 -77 252 l-68 233 -72 0 -73 0
0 -545z"/>
<path d="M1130 955 l0 -195 120 0 120 0 0 25 c0 25 0 25 -95 25 l-95 0 0 170
0 170 -25 0 -25 0 0 -195z"/>
<path d="M3170 1079 l0 -70 -22 15 c-42 29 -107 13 -127 -31 -16 -35 -14 -159
4 -192 22 -44 80 -56 123 -25 20 14 22 14 22 0 0 -10 9 -16 25 -16 l25 0 0
195 0 195 -25 0 c-24 0 -25 -2 -25 -71z m-10 -108 c14 -28 12 -124 -3 -145
-17 -24 -67 -24 -84 0 -19 26 -17 128 3 148 22 23 71 20 84 -3z"/>
<path d="M3523 1135 c-56 -24 -73 -66 -73 -178 0 -112 12 -147 63 -177 70 -43
168 -8 191 68 11 34 -29 29 -64 -8 -45 -48 -108 -38 -129 21 -14 39 -14 149
-1 183 22 59 89 70 134 21 22 -23 66 -35 66 -17 0 4 -9 21 -20 39 -35 58 -101
77 -167 48z"/>
<path d="M5694 1136 c-10 -26 4 -48 28 -44 17 2 23 10 23 28 0 18 -6 26 -23
28 -13 2 -25 -3 -28 -12z"/>
<path d="M1477 1025 c-36 -21 -47 -51 -47 -135 0 -57 4 -73 23 -95 27 -32 92
-44 137 -25 43 18 60 57 60 134 0 58 -3 69 -28 97 -34 38 -100 49 -145 24z
m107 -57 c9 -12 16 -43 16 -68 0 -25 -7 -56 -16 -68 -18 -26 -60 -29 -86 -5
-24 22 -25 118 -1 145 23 25 68 23 87 -4z"/>
<path d="M1696 1033 c-2 -2 20 -64 48 -139 65 -174 72 -174 132 -14 63 164 60
152 28 148 -25 -3 -30 -11 -57 -91 -16 -49 -32 -85 -35 -82 -4 3 -20 45 -37
92 -25 72 -34 87 -53 88 -12 1 -24 0 -26 -2z"/>
<path d="M2044 1030 c-43 -17 -64 -58 -64 -126 0 -35 5 -75 12 -89 14 -32 56
-55 98 -55 32 0 100 27 100 39 0 14 -37 29 -51 20 -40 -25 -109 2 -109 44 0
15 12 17 85 17 81 0 85 1 85 23 0 99 -75 160 -156 127z m90 -62 c28 -40 21
-48 -44 -48 -49 0 -60 3 -60 17 0 49 76 72 104 31z"/>
<path d="M2464 1030 c-58 -23 -34 -51 37 -43 42 5 48 3 64 -20 9 -14 14 -31
10 -37 -3 -5 -33 -10 -66 -10 -73 0 -99 -20 -99 -79 0 -31 6 -44 26 -60 30
-24 102 -29 122 -9 10 10 15 10 21 -1 5 -7 17 -11 27 -9 17 3 19 13 17 107 -1
112 -11 142 -50 160 -28 13 -79 13 -109 1z m116 -180 c0 -33 -22 -50 -67 -50
-34 0 -53 16 -53 45 0 31 7 35 67 35 52 0 53 0 53 -30z"/>
<path d="M2790 1023 c-17 -12 -25 -13 -28 -5 -2 7 -15 12 -28 12 l-24 0 0
-135 0 -135 25 0 c25 0 25 0 25 98 0 83 3 102 18 115 23 21 52 22 78 3 16 -12
20 -29 22 -116 4 -97 5 -101 25 -98 20 3 22 10 25 83 4 103 -4 142 -33 171
-28 28 -70 31 -105 7z"/>
<path d="M3845 1031 c-44 -18 -60 -49 -63 -127 -4 -74 -4 -74 32 -110 35 -35
39 -36 88 -32 76 8 98 37 98 128 0 38 -4 80 -10 94 -17 45 -91 69 -145 47z
m87 -58 c13 -12 18 -31 18 -74 0 -66 -16 -89 -60 -89 -39 0 -60 32 -60 92 0
75 55 114 102 71z"/>
<path d="M4162 1024 c-12 -8 -22 -10 -22 -5 0 6 -14 11 -30 11 l-31 0 3 -132
3 -133 25 0 c25 0 25 1 28 99 1 55 8 106 14 113 6 7 23 13 39 13 46 0 59 -30
59 -137 0 -93 0 -93 25 -93 25 0 25 0 25 99 0 108 10 131 54 131 44 0 56 -28
56 -133 0 -97 0 -97 25 -97 l25 0 0 105 c0 57 -5 115 -11 129 -23 49 -112 59
-143 15 -14 -20 -14 -20 -39 5 -30 30 -71 34 -105 10z"/>
<path d="M4563 1033 c-10 -3 -13 -52 -13 -194 l0 -189 25 0 c24 0 25 2 25 71
l0 70 22 -15 c27 -19 61 -20 91 -4 39 20 46 40 47 126 0 79 -2 85 -29 113 -33
32 -58 36 -101 14 -25 -13 -29 -13 -34 0 -6 15 -12 17 -33 8z m131 -59 c20
-20 22 -122 3 -148 -16 -21 -60 -24 -82 -6 -19 16 -21 140 -3 158 17 17 64 15
82 -4z"/>
<path d="M4878 1024 c-53 -28 -31 -44 48 -36 46 4 53 2 64 -17 20 -39 6 -51
-58 -51 -48 0 -62 -4 -80 -23 -27 -28 -29 -77 -4 -107 21 -26 98 -38 131 -21
15 8 21 9 21 1 0 -6 10 -10 23 -8 21 3 22 9 25 88 4 107 -9 155 -48 175 -37
19 -87 19 -122 -1z m122 -174 c0 -32 -22 -50 -62 -50 -39 0 -62 23 -54 53 6
25 10 27 61 27 54 0 55 0 55 -30z"/>
<path d="M5175 1030 c-32 -12 -47 -36 -47 -76 0 -47 18 -64 73 -70 81 -9 89
-13 89 -39 0 -13 -5 -27 -11 -31 -19 -12 -90 -6 -114 10 -21 14 -24 13 -40 -4
-16 -17 -15 -19 9 -35 30 -20 103 -31 141 -21 40 10 65 41 65 81 0 48 -26 71
-91 80 -66 9 -82 20 -68 46 11 21 60 26 105 9 21 -9 29 -7 40 7 12 16 9 20
-24 35 -39 19 -94 22 -127 8z"/>
<path d="M5453 1030 c-12 -5 -26 -18 -32 -29 -13 -23 -14 -71 -3 -88 10 -17
57 -33 95 -33 43 0 59 -13 55 -41 -3 -21 -9 -24 -51 -27 -31 -2 -57 2 -72 12
-17 11 -25 12 -34 3 -35 -35 31 -72 116 -65 69 6 93 27 93 84 0 53 -21 70
-100 81 -50 8 -55 11 -55 33 0 23 4 25 45 25 25 0 55 -4 67 -8 17 -6 24 -3 33
13 10 18 7 22 -24 35 -39 16 -99 19 -133 5z"/>
<path d="M5694 1025 c-3 -6 -3 -67 -2 -136 l3 -124 25 0 25 0 0 134 c0 134 0
134 -23 136 -13 1 -26 -3 -28 -10z"/>
<path d="M5883 1030 c-49 -20 -75 -110 -54 -186 15 -55 41 -76 99 -82 43 -4
53 -1 81 24 27 24 33 38 38 85 6 63 -8 118 -37 144 -22 20 -95 29 -127 15z
m92 -54 c16 -11 20 -26 20 -74 0 -35 -6 -66 -14 -76 -15 -18 -53 -21 -81 -6
-37 20 -34 138 3 162 19 12 51 9 72 -6z"/>
<path d="M6127 1034 c-1 -1 -1 -64 1 -139 3 -134 3 -136 25 -133 21 3 22 9 25
103 3 106 11 125 56 125 44 0 51 -14 56 -122 5 -97 6 -103 28 -106 22 -3 22
-2 22 110 0 101 -2 117 -20 136 -29 31 -66 38 -105 19 -23 -11 -35 -13 -37 -5
-4 10 -43 19 -51 12z"/>
</g>
</svg>
