<?xml version="1.0" standalone="no"?>
<!DOCTYPE svg PUBLIC "-//W3C//DTD SVG 20010904//EN"
 "http://www.w3.org/TR/2001/REC-SVG-20010904/DTD/svg10.dtd">
<svg version="1.0" xmlns="http://www.w3.org/2000/svg"
 width="173.000000pt" height="173.000000pt" viewBox="0 0 173.000000 173.000000"
 preserveAspectRatio="xMidYMid meet">

<g transform="translate(0.000000,173.000000) scale(0.100000,-0.100000)"
fill="#000000" stroke="none">
<path d="M916 1705 c196 -22 339 -80 476 -192 60 -49 159 -165 186 -219 12
-23 5 -67 -10 -58 -5 3 -7 12 -4 20 3 8 0 11 -10 7 -7 -3 -14 -9 -14 -13 0 -4
-12 -16 -27 -25 l-28 -18 24 26 c22 24 22 47 0 47 -6 0 -8 -4 -5 -9 3 -5 -2
-8 -12 -7 -10 0 -16 -6 -16 -16 1 -14 -2 -16 -18 -7 -18 10 -19 8 -13 -13 4
-17 3 -19 -4 -8 -5 8 -11 20 -12 25 -8 25 -149 159 -203 194 -280 176 -623
132 -848 -108 -34 -36 -69 -65 -78 -63 -12 2 -12 1 -2 -6 11 -7 9 -16 -8 -43
-20 -32 -20 -32 -14 -6 4 17 2 27 -5 27 -6 0 -11 -5 -11 -12 0 -6 -3 -8 -7 -5
-3 4 1 15 9 24 21 25 18 77 -5 81 -28 6 -34 -28 -8 -50 18 -14 19 -18 7 -18
-9 0 -21 9 -28 20 -15 23 -33 27 -24 5 3 -9 0 -15 -8 -15 -8 0 -16 -5 -18 -12
-2 -6 -12 -12 -22 -14 -13 -2 -16 2 -11 14 4 11 3 14 -4 7 -5 -5 -11 -21 -13
-35 -3 -25 -4 -25 -10 -3 -14 49 129 234 245 317 111 79 223 127 357 152 73
13 73 13 15 8 -218 -18 -452 -166 -585 -370 -216 -330 -172 -773 104 -1049
152 -152 347 -240 556 -252 388 -22 740 223 860 602 31 99 39 290 16 405 -78
382 -399 655 -795 675 l-96 4 121 -14z m76 -187 c29 -6 56 -11 61 -10 4 1 7
-3 7 -9 0 -5 4 -8 8 -5 5 3 46 -13 92 -36 66 -32 100 -57 161 -119 252 -257
252 -646 -1 -900 -69 -70 -184 -149 -197 -136 -3 4 -12 0 -20 -8 -16 -17 -70
-33 -134 -42 l-46 -5 2 143 c1 79 7 154 11 166 17 41 254 284 283 289 27 6 27
7 20 62 -3 32 -14 81 -23 111 -20 68 -20 100 0 131 l16 25 -21 -24 c-26 -28
-26 -64 -3 -156 10 -38 18 -81 17 -95 -1 -18 -39 -63 -143 -165 -168 -166
-170 -170 -173 -361 l-1 -124 -39 0 -39 0 -2 63 -2 62 -3 -64 -4 -64 -52 6
c-29 3 -70 11 -92 19 -38 12 -40 15 -43 58 -4 76 -9 85 -117 215 l-105 126 0
144 c0 136 2 147 31 227 18 45 39 91 47 101 9 10 11 17 4 17 -14 0 -35 -40
-67 -128 -23 -63 -25 -84 -25 -224 0 -151 1 -155 25 -178 13 -12 24 -25 23
-29 -2 -18 3 -33 9 -28 9 9 53 -33 53 -50 0 -8 5 -11 12 -7 7 5 9 2 5 -9 -6
-16 15 -42 26 -31 4 4 11 -4 16 -18 5 -14 17 -28 26 -32 11 -4 14 -12 10 -27
-5 -15 -4 -19 4 -15 7 5 11 -8 11 -38 0 -28 -5 -46 -11 -46 -31 0 -132 72
-204 144 -90 91 -134 169 -166 294 -86 335 123 683 465 772 82 22 211 25 288
8z m-722 -218 c0 -5 -4 -10 -9 -10 -6 0 -13 5 -16 10 -3 6 1 10 9 10 9 0 16
-4 16 -10z m1350 -94 c0 -6 -7 -1 -15 10 -8 10 -14 26 -14 34 0 16 28 -28 29
-44z m-1390 36 c0 -4 -9 -8 -20 -8 -11 0 -20 4 -20 8 0 4 9 8 20 8 11 0 20 -4
20 -8z m1285 -42 c-3 -5 -12 -10 -18 -10 -7 0 -6 4 3 10 19 12 23 12 15 0z
m-1029 -891 c37 -25 43 -33 34 -49 -12 -22 -30 -35 -30 -23 0 5 5 14 12 21 9
9 9 15 -1 25 -10 10 -18 5 -42 -23 -17 -20 -28 -43 -25 -52 5 -23 0 -23 -32 4
-15 12 -19 18 -10 15 13 -5 25 4 43 31 14 20 25 42 25 49 0 19 -27 16 -34 -3
-4 -9 -9 -14 -12 -11 -6 6 13 47 22 47 3 0 25 -14 50 -31z m794 27 c0 -3 -4
-8 -10 -11 -5 -3 -10 -1 -10 4 0 6 5 11 10 11 6 0 10 -2 10 -4z m70 -71 c17
11 11 -7 -7 -21 -22 -16 -37 -18 -28 -4 10 16 -24 62 -41 56 -8 -3 -14 -1 -14
3 0 22 27 17 53 -10 15 -17 32 -27 37 -24z m-95 -25 c9 -16 23 -30 32 -30 14
0 14 -2 -3 -15 -22 -17 -38 -19 -29 -5 4 6 -1 22 -9 35 -17 25 -40 33 -51 16
-9 -15 17 -61 34 -61 13 -1 12 -3 -3 -15 -22 -17 -40 -20 -31 -5 9 14 -24 72
-38 67 -23 -7 -20 -54 4 -71 26 -18 24 -21 -11 -30 -16 -5 -20 -4 -12 2 10 7
9 15 -5 40 -10 18 -24 30 -31 27 -7 -3 -10 0 -7 5 3 6 12 10 20 10 7 0 15 7
19 15 3 8 14 15 24 15 11 0 25 7 32 15 20 24 48 18 65 -15z m-703 -26 c-2 -10
-6 -31 -9 -46 -4 -23 -2 -28 16 -28 23 0 45 34 37 56 -3 8 -1 14 4 14 18 0 20
-20 6 -55 -11 -26 -12 -35 -3 -36 9 0 9 -2 0 -5 -6 -3 -28 2 -48 10 -35 15
-37 18 -30 49 4 17 8 40 8 50 1 9 6 16 12 14 5 -2 9 -13 7 -23z m154 -34 c8 0
14 -5 14 -11 0 -6 -9 -8 -20 -4 -13 4 -20 2 -20 -7 0 -7 -3 -23 -6 -35 -5 -17
-2 -23 10 -23 9 0 16 7 16 16 0 8 5 12 10 9 13 -8 -6 -45 -24 -45 -25 0 -36
25 -27 58 6 19 6 34 1 37 -5 3 -2 14 8 23 16 17 17 17 20 0 2 -10 10 -18 18
-18z m344 30 c0 -5 -4 -10 -10 -10 -5 0 -10 5 -10 10 0 6 5 10 10 10 6 0 10
-4 10 -10z m-64 -45 c3 -26 13 -52 20 -60 19 -19 18 -22 -12 -28 -20 -3 -24
-1 -19 11 10 27 -6 102 -22 102 -8 0 -11 5 -8 10 15 25 34 8 41 -35z m-67 3
c-1 -24 -3 -27 -6 -10 -6 30 -63 33 -63 2 0 -25 16 -26 29 -2 8 13 10 9 10
-23 -1 -22 -3 -32 -6 -22 -7 27 -33 21 -33 -8 0 -21 5 -25 30 -25 23 0 30 4
30 20 0 11 5 20 10 20 6 0 10 -11 10 -24 0 -21 -5 -24 -57 -29 -55 -4 -82 1
-55 10 15 6 17 103 2 103 -5 0 -10 4 -10 8 0 5 25 10 55 11 l55 2 -1 -33z
m148 -9 c3 -17 12 -33 19 -36 22 -8 16 -20 -11 -25 -21 -4 -24 -2 -20 12 9 28
-5 72 -21 66 -8 -3 -14 -1 -14 4 0 6 9 10 20 10 15 0 22 -9 27 -31z"/>
<path d="M516 1150 c7 -8 14 -24 17 -35 4 -19 5 -19 6 1 0 12 -7 28 -16 35
-16 12 -17 12 -7 -1z"/>
<path d="M1251 1143 c7 -12 15 -20 18 -17 3 2 -3 12 -13 22 -17 16 -18 16 -5
-5z"/>
<path d="M1270 1105 c0 -5 5 -17 10 -25 5 -8 10 -10 10 -5 0 6 -5 17 -10 25
-5 8 -10 11 -10 5z"/>
<path d="M531 1054 c0 -11 3 -14 6 -6 3 7 2 16 -1 19 -3 4 -6 -2 -5 -13z"/>
<path d="M1291 1059 c-1 -4 6 -26 14 -49 11 -31 15 -84 15 -194 l0 -151 -99
-117 c-88 -105 -130 -172 -117 -186 3 -2 8 8 12 23 4 15 54 84 111 154 l104
126 -3 165 c-3 128 -7 173 -20 200 -9 19 -17 32 -17 29z"/>
<path d="M503 920 c0 -25 2 -35 4 -22 2 12 2 32 0 45 -2 12 -4 2 -4 -23z"/>
<path d="M478 849 c-10 -5 -18 -15 -18 -22 0 -8 3 -9 8 -1 4 6 16 16 27 22 11
6 16 11 10 11 -5 0 -18 -4 -27 -10z"/>
<path d="M648 728 c68 -68 133 -136 143 -153 10 -16 19 -24 19 -16 0 14 -267
291 -280 291 -4 0 49 -55 118 -122z"/>
<path d="M1271 814 c0 -12 -8 -27 -16 -34 -22 -18 -118 -130 -112 -130 3 0 35
34 72 75 44 49 65 80 62 92 -4 15 -5 14 -6 -3z"/>
<path d="M460 792 c0 -3 32 -38 70 -78 39 -39 70 -69 70 -66 0 3 -31 38 -70
78 -38 39 -70 69 -70 66z"/>
<path d="M811 524 c0 -11 3 -14 6 -6 3 7 2 16 -1 19 -3 4 -6 -2 -5 -13z"/>
<path d="M776 1644 c-9 -23 -7 -44 4 -44 5 0 7 7 4 15 -4 8 -1 15 4 15 6 0 13
-12 15 -27 4 -26 4 -26 6 5 0 17 -4 32 -10 32 -5 0 -7 5 -4 10 3 6 2 10 -3 10
-6 0 -13 -7 -16 -16z"/>
<path d="M708 1619 c2 -16 8 -29 12 -29 9 0 1 48 -9 55 -4 2 -5 -9 -3 -26z"/>
<path d="M844 1642 c3 -6 2 -13 -4 -17 -5 -3 -10 -12 -10 -18 0 -7 4 -6 10 3
6 10 10 11 10 3 0 -7 4 -13 9 -13 12 0 2 38 -12 47 -5 3 -7 1 -3 -5z"/>
<path d="M941 1635 c-1 -38 14 -45 31 -14 9 16 13 29 8 29 -5 0 -12 -10 -16
-22 l-8 -23 -7 25 c-6 20 -7 21 -8 5z"/>
<path d="M742 1610 c0 -14 2 -19 5 -12 2 6 2 18 0 25 -3 6 -5 1 -5 -13z"/>
<path d="M1010 1610 c0 -21 -2 -22 -11 -10 -9 12 -10 12 -7 1 3 -8 9 -16 15
-18 15 -5 26 28 13 41 -7 7 -10 2 -10 -14z"/>
<path d="M1086 1604 c-4 -14 -5 -28 -3 -31 3 -2 8 8 11 23 4 14 5 28 3 31 -3
2 -8 -8 -11 -23z"/>
<path d="M670 1606 c0 -8 4 -17 9 -21 6 -3 9 4 8 15 -1 23 -17 28 -17 6z"/>
<path d="M1046 1604 c-9 -24 -2 -26 12 -4 7 11 8 20 3 20 -5 0 -12 -7 -15 -16z"/>
<path d="M590 1588 c0 -21 0 -21 -22 -2 l-21 19 18 -27 c23 -36 35 -35 35 2 0
17 -2 30 -5 30 -3 0 -5 -10 -5 -22z"/>
<path d="M628 1603 c9 -4 10 -8 2 -18 -8 -10 -8 -15 1 -21 7 -4 9 -3 5 4 -3 6
-2 13 4 17 5 3 10 1 10 -6 0 -7 2 -10 5 -7 10 10 -7 38 -24 37 -11 0 -12 -2
-3 -6z"/>
<path d="M1142 1582 c-6 -18 -7 -30 -2 -27 4 3 10 0 12 -7 3 -7 7 -4 10 7 3
11 2 29 -2 40 -6 16 -8 14 -18 -13z"/>
<path d="M1107 1580 c-3 -11 -1 -20 4 -20 5 0 9 9 9 20 0 11 -2 20 -4 20 -2 0
-6 -9 -9 -20z"/>
<path d="M1186 1554 c-11 -28 -6 -38 9 -18 8 10 15 22 15 27 0 13 -18 7 -24
-9z"/>
<path d="M510 1551 c0 -5 7 -15 17 -22 15 -13 15 -12 4 9 -12 23 -21 28 -21
13z"/>
<path d="M490 1538 c0 -9 5 -20 10 -23 13 -8 13 5 0 25 -8 13 -10 13 -10 -2z"/>
<path d="M1237 1531 c3 -13 1 -21 -6 -21 -7 0 -9 5 -6 10 3 6 1 10 -4 10 -16
0 -13 -27 2 -33 21 -8 40 28 22 43 -11 9 -12 7 -8 -9z"/>
<path d="M445 1520 c-4 -6 -1 -9 6 -8 6 2 14 -3 17 -11 3 -8 0 -11 -7 -7 -6 4
-11 2 -11 -3 0 -12 23 -15 33 -5 8 8 -11 44 -23 44 -5 0 -12 -5 -15 -10z"/>
<path d="M1262 1500 c-15 -25 -4 -26 15 -2 13 15 14 14 9 -13 -6 -28 -5 -29 9
-11 11 14 12 23 4 33 -15 18 -22 16 -37 -7z"/>
<path d="M400 1494 c0 -8 32 -33 43 -34 4 0 -2 9 -13 20 -21 21 -30 25 -30 14z"/>
<path d="M350 1473 c0 -5 12 -20 27 -34 14 -13 23 -19 19 -12 -3 6 1 13 11 16
17 4 17 5 1 6 -10 0 -18 6 -18 13 0 6 -3 8 -7 5 -3 -4 -12 -2 -20 4 -7 6 -13
7 -13 2z"/>
<path d="M1339 1454 c-18 -21 -20 -26 -6 -21 11 4 17 1 17 -9 0 -11 5 -10 22
6 20 18 20 22 7 35 -13 14 -18 12 -40 -11z m31 -4 c0 -5 -2 -10 -4 -10 -3 0
-8 5 -11 10 -3 6 -1 10 4 10 6 0 11 -4 11 -10z"/>
<path d="M349 1426 c17 -21 7 -33 -14 -16 -8 7 -15 9 -15 5 0 -17 35 -33 47
-23 19 15 16 26 -9 39 -21 11 -22 11 -9 -5z"/>
<path d="M1370 1405 c-7 -8 -8 -15 -2 -15 5 0 15 7 22 15 7 8 8 15 2 15 -5 0
-15 -7 -22 -15z"/>
<path d="M300 1385 c13 -14 28 -25 33 -25 6 0 0 11 -13 25 -13 14 -28 25 -33
25 -6 0 0 -11 13 -25z"/>
<path d="M1414 1391 c5 -7 -1 -11 -13 -11 -14 0 -19 -5 -15 -15 4 -8 10 -15
16 -15 5 0 6 5 3 10 -3 6 3 10 15 10 23 0 23 21 0 28 -7 3 -10 0 -6 -7z"/>
<path d="M250 1362 c0 -5 11 -17 25 -26 28 -18 39 -21 30 -6 -3 6 -1 10 5 10
6 0 8 5 5 10 -4 6 -10 8 -15 5 -4 -3 -11 1 -13 7 -4 10 -6 9 -6 -1 -1 -11 -4
-11 -16 -1 -9 7 -15 8 -15 2z"/>
<path d="M1442 1342 c-7 -9 -10 -11 -7 -4 3 6 2 12 -4 12 -17 0 -21 -17 -7
-29 10 -8 17 -6 30 8 10 10 13 21 9 24 -5 3 -15 -2 -21 -11z"/>
<path d="M1453 1303 c-13 -13 -23 -25 -23 -26 0 -2 16 -1 35 1 31 4 51 22 24
22 -5 0 -8 4 -4 9 12 21 -11 16 -32 -6z"/>
</g>
</svg>
